<svg width="24" height="26" viewBox="0 0 24 26" fill="none" xmlns="http://www.w3.org/2000/svg">
    <path d="M5.58987 18.3129H4.66821C4.17933 18.3129 3.71047 18.0971 3.36479 17.713C3.0191 17.3288 2.82489 16.8078 2.82489 16.2646V6.02276C2.82489 5.4795 3.0191 4.95849 3.36479 4.57435C3.71047 4.1902 4.17933 3.9744 4.66821 3.9744H19.4148C19.9036 3.9744 20.3725 4.1902 20.7182 4.57435C21.0639 4.95849 21.2581 5.4795 21.2581 6.02276V16.2646C21.2581 16.8078 21.0639 17.3288 20.7182 17.713C20.3725 18.0971 19.9036 18.3129 19.4148 18.3129H18.4931" stroke="#CB7DD0" stroke-linecap="round" stroke-linejoin="round"/>
    <path d="M12.0415 16.2646L16.6498 22.4097H7.43317L12.0415 16.2646Z" stroke="#CB7DD0" stroke-linecap="round" stroke-linejoin="round"/>
</svg>
