<svg width="250" height="38" viewBox="0 0 250 38" fill="none" xmlns="http://www.w3.org/2000/svg">
    <path d="M13.5938 7.2411V10.1216L10.7813 13.0021L8.2875 8.67656C9.90337 7.73135 11.7329 7.23641 13.5938 7.2411V7.2411ZM17.7328 18.2831L22.0313 23.564L17.8125 25.4843L20.8594 26.4349C19.3772 27.824 17.5448 28.7604 15.5698 29.1379C13.5948 29.5155 11.5561 29.3192 9.68438 28.5713C10.4178 27.6714 10.8044 26.5278 10.7714 25.3562C10.7383 24.1845 10.2879 23.0656 9.50497 22.2106C8.72204 21.3556 7.66075 20.8235 6.52119 20.7147C5.38164 20.6058 4.24256 20.9277 3.31875 21.6197C2.77992 19.8855 2.66915 18.0417 2.99636 16.253C3.32356 14.4643 4.07854 12.7866 5.19375 11.3698L10.3125 20.2034L13.5938 16.5068V18.2831H17.7328ZM27.1875 14.4424H20.625L16.4063 9.33428V3.40042C17.8221 3.40042 19.224 3.68603 20.5321 4.24094C21.8401 4.79585 23.0286 5.6092 24.0297 6.63454C25.0309 7.65988 25.825 8.87713 26.3668 10.2168C26.9086 11.5565 27.1875 12.9923 27.1875 14.4424V14.4424Z" fill="#FDFFFF" fill-opacity="0.8"/>
    <path d="M28.7578 16.8716C28.6676 16.8379 28.5694 16.8332 28.4764 16.858C28.3835 16.8829 28.3001 16.9362 28.2375 17.0108L25.7813 19.9442L21.6375 14.9225H27.1875C27.3118 14.9225 27.4311 14.8719 27.519 14.7819C27.6069 14.6918 27.6563 14.5697 27.6563 14.4424C27.6523 11.3878 26.4657 8.45949 24.3568 6.29956C22.2479 4.13964 19.3887 2.92441 16.4063 2.92035C16.2819 2.92035 16.1627 2.97093 16.0748 3.06096C15.9869 3.15099 15.9375 3.2731 15.9375 3.40043V8.02365L15.825 7.88923C15.7831 7.83861 15.7314 7.79744 15.6731 7.76833C15.6149 7.73922 15.5514 7.72279 15.4866 7.72008C15.4219 7.71737 15.3573 7.72845 15.2969 7.7526C15.2366 7.77676 15.1817 7.81347 15.1359 7.86042L14.0625 8.96462V7.24111C14.0625 7.11379 14.0131 6.99168 13.9252 6.90164C13.8373 6.81161 13.7181 6.76103 13.5938 6.76103C11.808 6.76262 10.0484 7.20041 8.46094 8.03805L5.09063 2.19542C5.04872 2.12413 4.98965 2.06507 4.91906 2.02387C4.84847 1.98268 4.76874 1.96075 4.6875 1.96017H1.40625C1.28193 1.96017 1.1627 2.01075 1.07479 2.10079C0.986886 2.19082 0.9375 2.31293 0.9375 2.44026V4.84069C0.937525 4.92685 0.960193 5.01143 1.00313 5.08553L4.63125 11.341C3.5731 12.7592 2.85475 14.412 2.53397 16.1664C2.2132 17.9208 2.29897 19.7278 2.78438 21.442C2.24676 21.9027 1.80661 22.4709 1.4909 23.1119C1.17519 23.7528 0.990549 24.4531 0.948294 25.1697C0.906039 25.8863 1.00706 26.6041 1.24516 27.2794C1.48327 27.9546 1.85344 28.5729 2.33303 29.0965C2.81261 29.6201 3.3915 30.0379 4.03424 30.3243C4.67699 30.6107 5.37006 30.7598 6.07101 30.7623C6.77196 30.7648 7.46603 30.6208 8.11072 30.3389C8.75541 30.0571 9.33715 29.6435 9.82031 29.1234C11.0295 29.5749 12.3067 29.8056 13.5938 29.8051C16.3062 29.8067 18.9268 28.7983 20.9672 26.9678L28.4578 29.3058C28.5018 29.3196 28.5477 29.3261 28.5938 29.325C28.695 29.3241 28.7934 29.2905 28.875 29.229C28.9336 29.1847 28.9812 29.1268 29.0138 29.06C29.0464 28.9933 29.0631 28.9196 29.0625 28.845V17.3229C29.0624 17.2249 29.0331 17.1293 28.9787 17.0487C28.9243 16.9681 28.8473 16.9064 28.7578 16.8716V16.8716ZM16.875 3.89012C19.4446 4.01294 21.8769 5.11354 23.6959 6.97648C25.5148 8.83942 26.5895 11.3306 26.7094 13.9623H20.8406L16.875 9.16145V3.89012ZM13.125 7.7308V9.92479L10.875 12.2244L8.93906 8.8638C10.2401 8.18635 11.667 7.80013 13.125 7.7308V7.7308ZM6.09375 29.8051C5.25936 29.8051 4.44371 29.5517 3.74994 29.0769C3.05617 28.6022 2.51544 27.9274 2.19613 27.1378C1.87683 26.3483 1.79328 25.4796 1.95606 24.6414C2.11884 23.8033 2.52064 23.0334 3.11064 22.4291C3.70065 21.8248 4.45236 21.4133 5.27071 21.2466C6.08907 21.0799 6.93732 21.1655 7.7082 21.4925C8.47907 21.8195 9.13795 22.3733 9.60151 23.0839C10.0651 23.7944 10.3125 24.6298 10.3125 25.4844C10.3108 26.6297 9.86573 27.7277 9.07494 28.5376C8.28415 29.3476 7.2121 29.8033 6.09375 29.8051V29.8051ZM13.5938 28.845C12.5205 28.8438 11.4542 28.6688 10.4344 28.3265C11.0535 27.3377 11.3327 26.1656 11.2277 24.996C11.1227 23.8263 10.6396 22.726 9.85491 21.8694C9.07021 21.0128 8.02881 20.4489 6.89577 20.2672C5.76273 20.0854 4.60286 20.2961 3.6 20.8659C3.23345 19.3986 3.18235 17.8673 3.45024 16.3778C3.71812 14.8882 4.2986 13.4761 5.15156 12.2388L9.90938 20.4483C9.94726 20.5127 9.99908 20.5675 10.0608 20.6082C10.1226 20.649 10.1926 20.6748 10.2656 20.6835C10.3387 20.69 10.4123 20.6791 10.4806 20.6516C10.5489 20.6241 10.6101 20.5808 10.6594 20.5251L13.125 17.7502V18.2831C13.125 18.4104 13.1744 18.5325 13.2623 18.6225C13.3502 18.7126 13.4694 18.7632 13.5938 18.7632H17.5172L21.2719 23.3816L17.6203 25.0475C17.5336 25.0872 17.4606 25.1531 17.4112 25.2362C17.3619 25.3194 17.3383 25.416 17.3438 25.5132C17.3506 25.611 17.3859 25.7046 17.4453 25.7816C17.5046 25.8587 17.5852 25.9157 17.6766 25.9452L19.8938 26.6366C18.0917 28.0692 15.875 28.8462 13.5938 28.845V28.845ZM14.0625 17.803V16.694L14.9859 15.6522L16.7344 17.803H14.0625ZM28.125 28.1968L19.1531 25.3979L22.2234 24.0009C22.2889 23.971 22.3467 23.926 22.3922 23.8693C22.4378 23.8127 22.4699 23.746 22.4859 23.6744C22.503 23.6021 22.5034 23.5268 22.4871 23.4543C22.4708 23.3818 22.4383 23.3142 22.3922 23.2568L15.3609 14.6152C15.3172 14.5631 15.2634 14.5208 15.2029 14.491C15.1423 14.4613 15.0765 14.4447 15.0094 14.4424C14.9424 14.4414 14.876 14.455 14.8146 14.4823C14.7532 14.5097 14.6981 14.55 14.6531 14.6008L10.3922 19.4017L1.875 4.71106V2.92035H4.42031L10.3781 13.247C10.4149 13.3097 10.4651 13.363 10.5249 13.4029C10.5847 13.4429 10.6525 13.4684 10.7234 13.4777C10.7942 13.4869 10.8661 13.4796 10.9338 13.4563C11.0015 13.433 11.0631 13.3942 11.1141 13.343L15.4406 8.91181L25.425 20.9956C25.4698 21.0473 25.5246 21.089 25.5859 21.1179C25.6472 21.1468 25.7137 21.1624 25.7813 21.1636C25.8489 21.1632 25.9157 21.1481 25.9771 21.1191C26.0386 21.0901 26.0933 21.048 26.1375 20.9956L28.125 18.6191V28.1968Z" fill="#FDFFFF" fill-opacity="0.8"/>
    <path d="M7.5 24.5242V24.0441C7.5 23.9168 7.45061 23.7947 7.36271 23.7046C7.2748 23.6146 7.15557 23.564 7.03125 23.564H5.15625C5.03193 23.564 4.9127 23.6146 4.82479 23.7046C4.73689 23.7947 4.6875 23.9168 4.6875 24.0441V24.5242C4.6875 24.6515 4.73689 24.7736 4.82479 24.8636C4.9127 24.9537 5.03193 25.0043 5.15625 25.0043H7.03125C7.40387 25.0054 7.76091 25.1575 8.02439 25.4274C8.28787 25.6972 8.43639 26.0629 8.4375 26.4445V26.9246C8.43639 27.3062 8.28787 27.6719 8.02439 27.9418C7.76091 28.2116 7.40387 28.3637 7.03125 28.3649H6.5625V28.8449H5.625V28.3649H5.15625C4.78363 28.3637 4.42659 28.2116 4.16311 27.9418C3.89963 27.6719 3.75111 27.3062 3.75 26.9246H4.6875C4.6875 27.0519 4.73689 27.174 4.82479 27.2641C4.9127 27.3541 5.03193 27.4047 5.15625 27.4047H7.03125C7.15557 27.4047 7.2748 27.3541 7.36271 27.2641C7.45061 27.174 7.5 27.0519 7.5 26.9246V26.4445C7.5 26.3172 7.45061 26.1951 7.36271 26.105C7.2748 26.015 7.15557 25.9644 7.03125 25.9644H5.15625C4.78363 25.9633 4.42659 25.8112 4.16311 25.5413C3.89963 25.2715 3.75111 24.9058 3.75 24.5242V24.0441C3.75111 23.6625 3.89963 23.2968 4.16311 23.0269C4.42659 22.7571 4.78363 22.605 5.15625 22.6038H5.625V22.1237H6.5625V22.6038H7.03125C7.40387 22.605 7.76091 22.7571 8.02439 23.0269C8.28787 23.2968 8.43639 23.6625 8.4375 24.0441V24.5242H7.5Z" fill="#FDFFFF" fill-opacity="0.8"/>
    <g filter="url(#filter0_d_70_14)">
        <path d="M41 26.7031V25.625C41 25.0625 40.9844 24.4844 40.9531 23.8906C40.9531 23.2969 40.9531 22.7188 40.9531 22.1562V19.5781C40.9531 18.9219 40.9531 18.2969 40.9531 17.7031C40.9844 17.0781 41 16.5469 41 16.1094V13.9531C41 13.4531 41.0156 12.9688 41.0469 12.5C41.1094 12.0312 41.2031 11.5781 41.3281 11.1406C41.4531 10.6719 41.6406 10.2344 41.8906 9.82812C42.0469 9.60938 42.1719 9.48438 42.2656 9.45312C42.3594 9.39062 42.5469 9.35938 42.8281 9.35938C42.9531 9.35938 43.125 9.39062 43.3438 9.45312C43.5938 9.48438 43.7188 9.60938 43.7188 9.82812V24.4062C43.7188 24.9375 43.8906 25.3281 44.2344 25.5781C44.5781 25.8281 44.9844 26 45.4531 26.0938C45.9531 26.1875 46.4531 26.2344 46.9531 26.2344H48.2188C49.5938 26.2344 50.9844 26.1875 52.3906 26.0938C53.7969 26 55.1875 25.9062 56.5625 25.8125C57.9375 25.6875 59.3125 25.5938 60.6875 25.5312C62.0938 25.4375 63.5 25.3906 64.9062 25.3906H65.4219C65.6094 25.3906 65.7344 25.4219 65.7969 25.4844C65.8906 25.5469 65.9531 25.6719 65.9844 25.8594C66.0469 26.0469 66.0781 26.3281 66.0781 26.7031C66.0781 26.7969 66 26.9062 65.8438 27.0312C65.7188 27.125 65.5781 27.2031 65.4219 27.2656C65.2031 27.3906 64.9688 27.5156 64.7188 27.6406C64.3125 27.6719 63.6562 27.7344 62.75 27.8281C61.875 27.8906 60.875 27.9688 59.75 28.0625C58.6562 28.1562 57.5 28.25 56.2812 28.3438C55.0625 28.4375 53.8906 28.5312 52.7656 28.625C51.6406 28.7188 50.6406 28.7969 49.7656 28.8594C48.8906 28.9219 48.25 28.9688 47.8438 29H45.5C44.8438 29 44.2188 28.9375 43.625 28.8125C43.0625 28.6875 42.5469 28.4688 42.0781 28.1562C41.6094 27.8125 41.25 27.3281 41 26.7031ZM66.9219 13.2031C66.9219 12.8281 66.9219 12.3906 66.9219 11.8906C66.9219 11.3906 66.9688 10.9219 67.0625 10.4844C67.1562 10.0156 67.3125 9.64062 67.5312 9.35938C67.7812 9.04688 68.1719 8.89062 68.7031 8.89062C68.9531 8.89062 69.1562 9.10938 69.3125 9.54688C69.5 9.98438 69.6406 10.5625 69.7344 11.2812C69.8281 11.9688 69.9062 12.7344 69.9688 13.5781C70.0312 14.4219 70.0625 15.2344 70.0625 16.0156C70.0938 16.7969 70.1094 17.5 70.1094 18.125C70.1406 18.75 70.1562 19.1719 70.1562 19.3906C70.2188 20.2031 70.3281 21.0312 70.4844 21.875C70.6719 22.6875 70.8438 23.5156 71 24.3594C71.1875 25.2031 71.3438 26.0312 71.4688 26.8438C71.625 27.6562 71.7031 28.4375 71.7031 29.1875C70.6094 29.1875 69.7344 28.9531 69.0781 28.4844C68.4219 28.0156 67.9219 27.3906 67.5781 26.6094C67.2656 25.8281 67.0625 24.9375 66.9688 23.9375C66.875 22.9062 66.8438 21.875 66.875 20.8438C66.9062 19.7812 66.9375 18.7344 66.9688 17.7031C67.0312 16.6406 67.0312 15.6875 66.9688 14.8438V14.6094C66.9688 14.4531 66.9531 14.2969 66.9219 14.1406C66.9219 13.9844 66.9219 13.8281 66.9219 13.6719V13.2031ZM74.3281 13.4844C74.1719 13.2969 74.0156 13.0781 73.8594 12.8281C73.7031 12.5469 73.5469 12.2656 73.3906 11.9844C73.2344 11.6719 73.1094 11.375 73.0156 11.0938C72.9219 10.7812 72.875 10.5156 72.875 10.2969C72.875 9.67188 73.2031 9.35938 73.8594 9.35938C74.6406 9.35938 75.3125 9.6875 75.875 10.3438C76.4688 10.9688 77 11.7812 77.4688 12.7812C77.9375 13.7812 78.375 14.875 78.7812 16.0625C79.1875 17.25 79.5938 18.4062 80 19.5312C80.4062 20.625 80.8438 21.625 81.3125 22.5312C81.8125 23.4375 82.375 24.0625 83 24.4062L86.6562 17.6094L87.125 17.1406C87.2812 16.9531 87.5156 16.6562 87.8281 16.25C88.1406 15.8125 88.4844 15.3125 88.8594 14.75C89.2344 14.1875 89.625 13.6094 90.0312 13.0156C90.4688 12.4219 90.8906 11.8594 91.2969 11.3281C91.7031 10.7969 92.0469 10.3125 92.3281 9.875C92.6406 9.4375 92.8906 9.10938 93.0781 8.89062C93.0781 8.89062 93.1406 8.89062 93.2656 8.89062C93.3906 8.89062 93.4688 8.89062 93.5 8.89062C93.9688 8.89062 94.3281 9.04688 94.5781 9.35938C94.8281 9.67188 94.9531 10.0625 94.9531 10.5312C94.9531 10.5625 94.9375 10.6719 94.9062 10.8594C94.9062 11.0469 94.9062 11.1562 94.9062 11.1875C94.75 11.4062 94.5312 11.7188 94.25 12.125C93.9688 12.5 93.6406 12.9531 93.2656 13.4844C92.9219 14.0156 92.5469 14.5625 92.1406 15.125C91.7344 15.6562 91.3438 16.1875 90.9688 16.7188C90.625 17.2188 90.3125 17.6719 90.0312 18.0781C89.75 18.4844 89.5312 18.7812 89.375 18.9688C89.375 19.0312 89.3125 19.1094 89.1875 19.2031C89.0625 19.2969 88.9688 19.3594 88.9062 19.3906L84.3594 28.0625C84.3594 28.0938 84.2812 28.1562 84.125 28.25C83.9688 28.3125 83.7969 28.3906 83.6094 28.4844C83.4219 28.5781 83.2188 28.6875 83 28.8125C82.8125 28.9062 82.6562 28.9688 82.5312 29C82.5 29 82.4219 29 82.2969 29C82.1719 29.0312 82.0625 29.0469 81.9688 29.0469H81.7812C81.7188 29.0469 81.6719 29.0312 81.6406 29L74.3281 13.4844ZM95.7031 22.4375C95.7031 20.7188 95.8125 18.9219 96.0312 17.0469C96.25 15.1406 96.4688 13.3281 96.6875 11.6094C96.75 11.0156 97.0625 10.5156 97.625 10.1094C98.1875 9.67188 98.8906 9.3125 99.7344 9.03125C100.578 8.75 101.5 8.53125 102.5 8.375C103.531 8.21875 104.531 8.10938 105.5 8.04688C106.5 7.98438 107.438 7.95312 108.312 7.95312C109.188 7.92188 109.891 7.90625 110.422 7.90625C110.609 7.90625 110.875 7.90625 111.219 7.90625C111.562 7.90625 111.938 7.90625 112.344 7.90625C112.75 7.875 113.172 7.875 113.609 7.90625C114.047 7.9375 114.422 8.01562 114.734 8.14062C115.078 8.23438 115.359 8.39062 115.578 8.60938C115.797 8.82812 115.906 9.10938 115.906 9.45312C115.906 9.67188 115.844 9.875 115.719 10.0625C115.625 10.2188 115.375 10.2969 114.969 10.2969C112.344 9.98438 109.719 10.0312 107.094 10.4375C104.469 10.8125 101.922 11.375 99.4531 12.125C99.4531 12.1875 99.4531 12.3438 99.4531 12.5938V13.9062C99.4531 14.1562 99.4531 14.3125 99.4531 14.375C99.4531 14.4375 99.4219 14.5625 99.3594 14.75C99.2969 14.9062 99.2344 15.0938 99.1719 15.3125C99.1406 15.5 99.0938 15.6875 99.0312 15.875C98.9688 16.0625 98.9375 16.1719 98.9375 16.2031C98.9375 16.2656 99 16.3594 99.125 16.4844C99.25 16.5781 99.3594 16.6406 99.4531 16.6719H99.9219C100.078 16.6719 100.438 16.6562 101 16.625C101.562 16.5625 102.219 16.5 102.969 16.4375C103.719 16.3438 104.516 16.2656 105.359 16.2031C106.203 16.1406 107 16.0781 107.75 16.0156C108.5 15.9531 109.156 15.9062 109.719 15.875C110.312 15.8438 110.688 15.8125 110.844 15.7812H111.031C111.156 15.7812 111.281 15.7812 111.406 15.7812C111.562 15.75 111.688 15.7344 111.781 15.7344H112.109C112.672 15.7344 113.062 15.7969 113.281 15.9219C113.531 16.0156 113.656 16.3594 113.656 16.9531C113.656 17.4531 113.438 17.8125 113 18.0312C112.562 18.2188 111.984 18.3594 111.266 18.4531C110.578 18.5156 109.781 18.5469 108.875 18.5469C107.969 18.5156 107.047 18.5 106.109 18.5C105.172 18.4688 104.234 18.4844 103.297 18.5469C102.391 18.6094 101.578 18.75 100.859 18.9688C100.172 19.1875 99.6094 19.5312 99.1719 20C98.7656 20.4688 98.5625 21.1094 98.5625 21.9219C98.5625 23.0156 98.7656 23.8906 99.1719 24.5469C99.5781 25.2031 100.125 25.7188 100.812 26.0938C101.5 26.4375 102.281 26.6719 103.156 26.7969C104.031 26.9219 104.922 26.9844 105.828 26.9844C106.766 26.9531 107.703 26.9062 108.641 26.8438C109.578 26.7812 110.453 26.75 111.266 26.75C112.016 26.75 112.688 26.6719 113.281 26.5156C113.906 26.3281 114.547 26.2344 115.203 26.2344C115.391 26.2344 115.531 26.2969 115.625 26.4219C115.75 26.5156 115.828 26.6406 115.859 26.7969C115.891 26.9531 115.906 27.1094 115.906 27.2656V27.6875C115.906 28.0625 115.875 28.375 115.812 28.625C115.75 28.875 115.469 29 114.969 29H101.703C100.672 29 99.7656 28.8438 98.9844 28.5312C98.2344 28.1875 97.625 27.7188 97.1562 27.125C96.6875 26.5312 96.3281 25.8438 96.0781 25.0625C95.8281 24.25 95.7031 23.375 95.7031 22.4375ZM130.906 11.6094C130.875 11.6094 130.688 11.6094 130.344 11.6094C130.031 11.6094 129.672 11.6094 129.266 11.6094C128.859 11.6094 128.453 11.6094 128.047 11.6094C127.641 11.5781 127.344 11.5625 127.156 11.5625C125.656 11.5625 124.219 11.6562 122.844 11.8438C121.5 12.0312 120.141 12.125 118.766 12.125C118.453 12.125 118.266 12 118.203 11.75C118.141 11.4688 118.109 11.2031 118.109 10.9531C118.109 10.4531 118.281 10.0625 118.625 9.78125C119 9.46875 119.453 9.23438 119.984 9.07812C120.516 8.92188 121.109 8.82812 121.766 8.79688C122.422 8.73438 123.062 8.71875 123.688 8.75C124.312 8.75 124.875 8.78125 125.375 8.84375C125.906 8.875 126.312 8.89062 126.594 8.89062C129.688 8.89062 132.844 9.01562 136.062 9.26562C139.281 9.48438 142.438 9.67188 145.531 9.82812C145.562 9.82812 145.625 9.875 145.719 9.96875C145.812 10.0312 145.906 10.125 146 10.25C146.125 10.3438 146.219 10.4375 146.281 10.5312C146.375 10.625 146.422 10.7031 146.422 10.7656C146.422 10.7969 146.438 10.8125 146.469 10.8125V10.9062L146.516 10.9531C146.516 10.9844 146.5 11.0156 146.469 11.0469C146.469 11.0469 146.469 11.0625 146.469 11.0938C146.438 11.125 146.422 11.1562 146.422 11.1875C146.391 11.25 146.328 11.3438 146.234 11.4688C146.141 11.5625 146.047 11.6562 145.953 11.75C145.859 11.8438 145.766 11.9375 145.672 12.0312C145.609 12.0938 145.562 12.125 145.531 12.125H134.844C134.844 12.75 134.766 13.3438 134.609 13.9062C134.484 14.4375 134.328 14.9688 134.141 15.5C133.953 16.0312 133.766 16.5781 133.578 17.1406C133.422 17.7031 133.312 18.3125 133.25 18.9688V19.3906C133.219 19.6406 133.188 20 133.156 20.4688C133.156 20.9062 133.125 21.4062 133.062 21.9688C133.031 22.5312 133 23.125 132.969 23.75C132.969 24.375 132.938 24.9844 132.875 25.5781C132.844 26.1406 132.812 26.6562 132.781 27.125C132.781 27.5625 132.766 27.875 132.734 28.0625C132.547 28.5938 132.203 28.9219 131.703 29.0469C131.203 29.2031 130.734 29.2812 130.297 29.2812C130.297 27.9375 130.25 26.5156 130.156 25.0156C130.094 23.5156 130.109 22.0156 130.203 20.5156C130.297 18.9844 130.516 17.5 130.859 16.0625C131.234 14.625 131.859 13.3125 132.734 12.125L130.906 11.6094ZM150.734 21.6875V26.7031C150.734 26.7344 150.672 26.8125 150.547 26.9375C150.453 27.0625 150.328 27.2031 150.172 27.3594C150.016 27.4844 149.844 27.625 149.656 27.7812C149.469 27.9375 149.312 28.0312 149.188 28.0625C149.125 28.0938 149.062 28.1094 149 28.1094C148.969 28.1094 148.922 28.1094 148.859 28.1094H148.719C148.531 28.1094 148.359 28.0938 148.203 28.0625C148.047 28.0312 147.922 27.8906 147.828 27.6406V26.9375C147.828 26.5625 147.812 26.1875 147.781 25.8125C147.781 25.4062 147.781 25.0312 147.781 24.6875V23.9844C147.781 21.3906 147.969 19.1094 148.344 17.1406C148.719 15.1406 149.422 13.4219 150.453 11.9844C151.516 10.5469 152.969 9.42188 154.812 8.60938C156.656 7.76562 159.047 7.26562 161.984 7.10938C162.422 7.23438 162.812 7.42188 163.156 7.67188C163.5 7.92188 163.781 8.23438 164 8.60938C164.25 8.95312 164.438 9.32812 164.562 9.73438C164.688 10.1094 164.75 10.5156 164.75 10.9531C164.75 11.7656 164.531 12.5312 164.094 13.25C163.656 13.9375 163.109 14.5938 162.453 15.2188C161.828 15.8438 161.125 16.4219 160.344 16.9531C159.594 17.4531 158.891 17.9062 158.234 18.3125C157.609 18.7188 157.078 19.0938 156.641 19.4375C156.203 19.7812 155.984 20.0781 155.984 20.3281C155.984 20.7031 156.125 21.0938 156.406 21.5C156.688 21.9062 157.062 22.2969 157.531 22.6719C158 23.0469 158.516 23.4062 159.078 23.75C159.641 24.0625 160.188 24.3594 160.719 24.6406C161.281 24.9219 161.797 25.1719 162.266 25.3906C162.734 25.5781 163.078 25.7344 163.297 25.8594H164.141C164.547 25.8594 164.969 25.8594 165.406 25.8594C165.844 25.8594 166.25 25.8594 166.625 25.8594H167.469C168.125 25.8594 168.75 25.8281 169.344 25.7656C169.969 25.7031 170.578 25.6406 171.172 25.5781C171.766 25.4844 172.359 25.4062 172.953 25.3438C173.578 25.2812 174.219 25.25 174.875 25.25C174.875 25.9062 174.688 26.4531 174.312 26.8906C173.969 27.3281 173.516 27.6875 172.953 27.9688C172.391 28.25 171.75 28.4688 171.031 28.625C170.344 28.7812 169.656 28.8906 168.969 28.9531C168.312 28.9844 167.656 29 167 29H165.594C164.312 29 163.047 28.7969 161.797 28.3906C160.578 27.9844 159.391 27.4375 158.234 26.75C157.109 26.0625 156.047 25.2812 155.047 24.4062C154.047 23.5312 153.141 22.625 152.328 21.6875H150.734ZM151.438 17.1875C151.438 17.5625 151.578 17.8125 151.859 17.9375C152.172 18.0312 152.5 18.0781 152.844 18.0781C153.281 18.0781 153.812 17.9844 154.438 17.7969C155.062 17.5781 155.703 17.3125 156.359 17C157.016 16.6875 157.656 16.3125 158.281 15.875C158.906 15.4375 159.453 14.9688 159.922 14.4688C160.422 13.9375 160.828 13.3906 161.141 12.8281C161.453 12.2656 161.609 11.7188 161.609 11.1875C161.609 10.75 161.531 10.4219 161.375 10.2031C161.219 9.95312 160.875 9.82812 160.344 9.82812C159.312 9.82812 158.266 10 157.203 10.3438C156.172 10.6562 155.219 11.125 154.344 11.75C153.5 12.375 152.797 13.1562 152.234 14.0938C151.703 15 151.438 16.0312 151.438 17.1875ZM192.031 28.5781C191.906 28.1719 191.797 27.6406 191.703 26.9844C191.609 26.2969 191.516 25.5625 191.422 24.7812C191.328 23.9688 191.219 23.1562 191.094 22.3438C191 21.5 190.891 20.7031 190.766 19.9531C190.672 19.2031 190.531 18.5469 190.344 17.9844C190.188 17.3906 190 16.9531 189.781 16.6719H189.312C189.094 16.6719 188.859 16.6719 188.609 16.6719C188.391 16.6719 188.172 16.6719 187.953 16.6719H187.484C186.828 16.6719 186.234 16.6719 185.703 16.6719C185.172 16.6719 184.656 16.7188 184.156 16.8125C183.656 16.875 183.125 16.9688 182.562 17.0938C182 17.1875 181.344 17.3594 180.594 17.6094C180.406 17.6719 180.234 17.8438 180.078 18.125C179.922 18.4062 179.781 18.7188 179.656 19.0625C179.562 19.375 179.469 19.6875 179.375 20C179.312 20.3125 179.281 20.5781 179.281 20.7969C179.281 21.0156 179.25 21.4062 179.188 21.9688C179.156 22.5312 179.109 23.125 179.047 23.75C179.016 24.375 178.969 24.9844 178.906 25.5781C178.844 26.1406 178.797 26.5156 178.766 26.7031C178.547 27.0781 178.234 27.4062 177.828 27.6875C177.422 27.9688 176.984 28.1094 176.516 28.1094C176.109 28.1094 175.844 28.0156 175.719 27.8281C175.594 27.6406 175.531 27.3438 175.531 26.9375C175.531 26.9062 175.531 26.7969 175.531 26.6094C175.562 26.4219 175.578 26.2969 175.578 26.2344C176.047 21.9844 176.875 17.7969 178.062 13.6719C179.25 9.54688 180.719 5.51562 182.469 1.57812C182.469 1.54688 182.5 1.48438 182.562 1.39062C182.656 1.29688 182.75 1.20312 182.844 1.10938C182.969 1.01562 183.078 0.9375 183.172 0.875C183.266 0.78125 183.328 0.734375 183.359 0.734375C183.422 0.734375 183.469 0.71875 183.5 0.6875C183.531 0.6875 183.547 0.6875 183.547 0.6875L183.594 0.640625C184.312 0.640625 185 0.90625 185.656 1.4375C186.344 1.9375 187 2.57812 187.625 3.35938C188.25 4.14062 188.812 5.03125 189.312 6.03125C189.812 7 190.25 7.95312 190.625 8.89062C191.031 9.82812 191.344 10.7188 191.562 11.5625C191.812 12.375 191.969 13.0156 192.031 13.4844C192.375 13.6719 192.719 13.8281 193.062 13.9531C193.438 14.0469 193.797 14.1719 194.141 14.3281C194.484 14.4531 194.781 14.625 195.031 14.8438C195.312 15.0312 195.547 15.3438 195.734 15.7812C195.734 15.8125 195.719 15.875 195.688 15.9688C195.688 16.0625 195.656 16.1562 195.594 16.25C195.531 16.3438 195.469 16.4375 195.406 16.5312C195.375 16.625 195.328 16.6719 195.266 16.6719C195.203 16.7031 195.047 16.75 194.797 16.8125C194.578 16.875 194.344 16.9375 194.094 17C193.875 17.0312 193.641 17.0625 193.391 17.0938C193.172 17.125 193.031 17.1406 192.969 17.1406V17.375C192.969 18.8125 193.094 20.3125 193.344 21.875C193.594 23.4062 193.922 24.8594 194.328 26.2344C194.328 26.2656 194.344 26.3281 194.375 26.4219C194.438 26.5156 194.5 26.6094 194.562 26.7031C194.625 26.7969 194.672 26.9062 194.703 27.0312C194.734 27.125 194.766 27.1719 194.797 27.1719V27.4062C194.797 27.9375 194.594 28.3438 194.188 28.625C193.812 28.9062 193.406 29.0469 192.969 29.0469C192.75 29.0469 192.562 29.0312 192.406 29C192.25 28.9375 192.125 28.7969 192.031 28.5781ZM181.109 14.5156C181.703 14.5156 182.391 14.4844 183.172 14.4219C183.984 14.3281 184.781 14.2188 185.562 14.0938C186.375 13.9688 187.125 13.8594 187.812 13.7656C188.5 13.6406 189 13.5469 189.312 13.4844C189.281 13.2969 189.172 12.9375 188.984 12.4062C188.828 11.875 188.656 11.3125 188.469 10.7188C188.281 10.125 188.094 9.57812 187.906 9.07812C187.719 8.54688 187.578 8.1875 187.484 8C187.422 7.875 187.281 7.65625 187.062 7.34375C186.875 7 186.641 6.67188 186.359 6.35938C186.109 6.04688 185.828 5.78125 185.516 5.5625C185.234 5.3125 184.984 5.1875 184.766 5.1875C184.578 5.1875 184.406 5.20312 184.25 5.23438C184.094 5.26562 183.953 5.4375 183.828 5.75L181.109 13.4844V14.5156ZM196.531 19.625C196.531 18.4062 196.844 17.3281 197.469 16.3906C198.094 15.4531 198.891 14.6406 199.859 13.9531C200.828 13.2344 201.938 12.6406 203.188 12.1719C204.438 11.7031 205.688 11.3281 206.938 11.0469C208.188 10.7656 209.391 10.5781 210.547 10.4844C211.734 10.3594 212.75 10.2969 213.594 10.2969C213.938 10.2969 214.25 10.4219 214.531 10.6719C214.812 10.9219 214.953 11.2344 214.953 11.6094C214.953 11.9531 214.906 12.2656 214.812 12.5469C214.75 12.7969 214.609 13.1094 214.391 13.4844C213.734 13.3906 212.906 13.3438 211.906 13.3438C210.906 13.3438 209.859 13.4062 208.766 13.5312C207.703 13.6562 206.641 13.875 205.578 14.1875C204.516 14.4688 203.547 14.875 202.672 15.4062C201.797 15.9062 201.094 16.5156 200.562 17.2344C200.031 17.9531 199.766 18.8281 199.766 19.8594C199.766 20.7969 199.922 21.6094 200.234 22.2969C200.547 22.9531 200.969 23.5312 201.5 24.0312C202.031 24.5 202.641 24.8906 203.328 25.2031C204.016 25.4844 204.734 25.7188 205.484 25.9062C206.266 26.0625 207.047 26.1719 207.828 26.2344C208.609 26.2969 209.359 26.3281 210.078 26.3281C210.891 26.3281 211.688 26.3125 212.469 26.2812C213.281 26.25 214.062 26.1875 214.812 26.0938C215.562 26 216.328 25.875 217.109 25.7188C217.891 25.5312 218.656 25.25 219.406 24.875C219.75 24.9688 219.922 25.1406 219.922 25.3906C219.953 25.6094 219.969 25.8438 219.969 26.0938C219.969 26.6875 219.766 27.1719 219.359 27.5469C218.984 27.9219 218.469 28.2188 217.812 28.4375C217.188 28.6562 216.484 28.8125 215.703 28.9062C214.922 29 214.156 29.0469 213.406 29.0469C212.656 29.0781 211.953 29.0781 211.297 29.0469C210.672 29.0469 210.188 29.0469 209.844 29.0469C208.906 29.0469 207.906 28.9844 206.844 28.8594C205.812 28.7031 204.812 28.4844 203.844 28.2031C202.875 27.9219 201.938 27.5469 201.031 27.0781C200.156 26.5781 199.391 25.9844 198.734 25.2969C198.078 24.6094 197.547 23.7969 197.141 22.8594C196.734 21.9219 196.531 20.8438 196.531 19.625ZM221.234 11.6094C221.234 11.3906 221.234 11.1094 221.234 10.7656C221.266 10.3906 221.312 10.0312 221.375 9.6875C221.469 9.34375 221.609 9.04688 221.797 8.79688C221.984 8.54688 222.266 8.42188 222.641 8.42188C223.047 8.42188 223.344 8.51562 223.531 8.70312C223.75 8.89062 223.891 9.125 223.953 9.40625C224.016 9.6875 224.031 10 224 10.3438C224 10.6562 224.016 10.9375 224.047 11.1875C224.047 11.4375 224.062 11.875 224.094 12.5C224.125 13.0938 224.156 13.7344 224.188 14.4219C224.25 15.0781 224.297 15.7188 224.328 16.3438C224.391 16.9375 224.422 17.3594 224.422 17.6094H224.938L232.203 13.9062C232.516 13.5312 232.875 13.1875 233.281 12.875C233.688 12.5312 234.078 12.2031 234.453 11.8906C234.859 11.5469 235.266 11.2188 235.672 10.9062C236.078 10.5625 236.453 10.2031 236.797 9.82812H238.203V11.6094C238.203 11.7969 238 12.0938 237.594 12.5C237.188 12.875 236.719 13.2812 236.188 13.7188C235.688 14.1562 235.188 14.5781 234.688 14.9844C234.188 15.3906 233.828 15.6562 233.609 15.7812C233.422 15.875 233.078 16.0625 232.578 16.3438C232.109 16.5938 231.609 16.875 231.078 17.1875C230.547 17.4688 230.047 17.7344 229.578 17.9844C229.109 18.2344 228.781 18.4062 228.594 18.5L241.391 25.3906C241.516 25.3906 241.797 25.4062 242.234 25.4375C242.703 25.4688 243.172 25.5469 243.641 25.6719C244.141 25.7969 244.578 25.9844 244.953 26.2344C245.328 26.4531 245.516 26.7656 245.516 27.1719C245.516 27.3594 245.484 27.5312 245.422 27.6875C245.391 27.8438 245.25 27.9688 245 28.0625C244.906 28.0625 244.766 28.0781 244.578 28.1094C244.391 28.1094 244.188 28.1094 243.969 28.1094C243.781 28.1094 243.578 28.1094 243.359 28.1094C243.172 28.1094 243.047 28.1094 242.984 28.1094C241.891 28.1094 240.844 27.9531 239.844 27.6406C238.875 27.2969 237.906 26.875 236.938 26.375C236 25.8438 235.078 25.2812 234.172 24.6875C233.297 24.0938 232.391 23.5469 231.453 23.0469C230.516 22.5156 229.547 22.0781 228.547 21.7344C227.547 21.3594 226.5 21.1719 225.406 21.1719C225.344 21.1719 225.25 21.1875 225.125 21.2188C225 21.2188 224.938 21.2188 224.938 21.2188C224.875 21.5 224.859 21.8906 224.891 22.3906C224.922 22.8594 224.938 23.3906 224.938 23.9844C224.938 24.5469 224.906 25.1406 224.844 25.7656C224.812 26.3594 224.719 26.9062 224.562 27.4062C224.438 27.875 224.234 28.2812 223.953 28.625C223.672 28.9375 223.297 29.0938 222.828 29.0938C222.391 29.0938 222.109 29.0156 221.984 28.8594C221.859 28.7031 221.781 28.2969 221.75 27.6406C221.75 27.5156 221.734 27.2969 221.703 26.9844C221.703 26.6406 221.703 26.25 221.703 25.8125V24.4062C221.703 23.9375 221.703 23.4844 221.703 23.0469C221.734 22.6094 221.75 22.2344 221.75 21.9219V21.2188C221.75 21.0625 221.734 20.75 221.703 20.2812C221.672 19.7812 221.625 19.2031 221.562 18.5469C221.531 17.8906 221.5 17.1875 221.469 16.4375C221.438 15.6875 221.406 14.9844 221.375 14.3281C221.344 13.6719 221.312 13.1094 221.281 12.6406C221.25 12.1406 221.234 11.7969 221.234 11.6094Z" fill="url(#paint0_linear_70_14)"/>
    </g>
    <defs>
        <filter id="filter0_d_70_14" x="36.9531" y="0.640625" width="212.562" height="36.6406" filterUnits="userSpaceOnUse" color-interpolation-filters="sRGB">
            <feFlood flood-opacity="0" result="BackgroundImageFix"/>
            <feColorMatrix in="SourceAlpha" type="matrix" values="0 0 0 0 0 0 0 0 0 0 0 0 0 0 0 0 0 0 127 0" result="hardAlpha"/>
            <feOffset dy="4"/>
            <feGaussianBlur stdDeviation="2"/>
            <feComposite in2="hardAlpha" operator="out"/>
            <feColorMatrix type="matrix" values="0 0 0 0 0 0 0 0 0 0 0 0 0 0 0 0 0 0 0.25 0"/>
            <feBlend mode="normal" in2="BackgroundImageFix" result="effect1_dropShadow_70_14"/>
            <feBlend mode="normal" in="SourceGraphic" in2="effect1_dropShadow_70_14" result="shape"/>
        </filter>
        <linearGradient id="paint0_linear_70_14" x1="143" y1="-17" x2="143" y2="49" gradientUnits="userSpaceOnUse">
            <stop stop-color="#0E2F84"/>
            <stop offset="0.765625" stop-color="#CFD8DC"/>
            <stop offset="1" stop-color="#2B4B9B"/>
        </linearGradient>
    </defs>
</svg>
