<svg width="21" height="22" viewBox="0 0 21 22" fill="none" xmlns="http://www.w3.org/2000/svg">
    <path d="M18.4966 16.6003C18.2077 16.6 17.9307 16.4921 17.7264 16.3003C17.5221 16.1085 17.4071 15.8484 17.4069 15.5771V9.11677C17.3935 7.65042 16.8514 6.23157 15.869 5.09164C14.8865 3.95171 13.5217 3.15796 11.997 2.83986V1.96678C11.997 1.60927 11.8458 1.2664 11.5765 1.0136C11.3073 0.760796 10.9421 0.618774 10.5613 0.618774C10.1805 0.618774 9.81537 0.760796 9.54612 1.0136C9.27687 1.2664 9.12561 1.60927 9.12561 1.96678V2.83986C7.60102 3.15802 6.23622 3.95179 5.25377 5.0917C4.27132 6.23162 3.72919 7.65043 3.71579 9.11677V15.5789C3.71501 15.8498 3.59989 16.1095 3.39564 16.3009C3.19139 16.4924 2.91466 16.6 2.62606 16.6003C2.37541 16.6006 2.13511 16.6942 1.95787 16.8606C1.78063 17.027 1.68093 17.2526 1.68064 17.488V18.4677C1.68093 18.703 1.78063 18.9286 1.95787 19.0951C2.13511 19.2615 2.37541 19.3551 2.62606 19.3554H8.34855C8.43929 19.8446 8.71097 20.288 9.11576 20.6076C9.52054 20.9272 10.0324 21.1024 10.5613 21.1024C11.0902 21.1024 11.6021 20.9272 12.0069 20.6076C12.4117 20.288 12.6834 19.8446 12.7741 19.3554H18.4966C18.7472 19.3551 18.9875 19.2615 19.1648 19.0951C19.342 18.9286 19.4417 18.703 19.442 18.4677V17.488C19.4417 17.2526 19.342 17.027 19.1648 16.8606C18.9875 16.6942 18.7472 16.6006 18.4966 16.6003V16.6003ZM9.86567 1.96678C9.86567 1.79355 9.93896 1.62742 10.0694 1.50493C10.1999 1.38244 10.3768 1.31362 10.5613 1.31362C10.7458 1.31362 10.9228 1.38244 11.0532 1.50493C11.1837 1.62742 11.257 1.79355 11.257 1.96678V2.72277C10.7942 2.6823 10.3284 2.6823 9.86567 2.72277V1.96678ZM10.5613 20.4219C10.2264 20.4216 9.90116 20.3165 9.63686 20.1234C9.37255 19.9303 9.18422 19.6601 9.10156 19.3554H12.0211C11.9384 19.6601 11.7501 19.9303 11.4858 20.1234C11.2215 20.3165 10.8962 20.4216 10.5613 20.4219ZM18.702 18.4677C18.7019 18.5188 18.6802 18.5678 18.6417 18.6039C18.6032 18.6401 18.551 18.6604 18.4966 18.6605H2.62606C2.57162 18.6604 2.51944 18.6401 2.48095 18.6039C2.44246 18.5678 2.42079 18.5188 2.42069 18.4677V17.488C2.42079 17.4368 2.44246 17.3878 2.48095 17.3517C2.51944 17.3156 2.57162 17.2952 2.62606 17.2951C3.1112 17.2947 3.57633 17.1135 3.91938 16.7914C4.26242 16.4693 4.45536 16.0326 4.45585 15.5771V9.11677C4.40701 5.67275 7.94892 2.83187 11.566 3.46314C12.9864 3.69626 14.2747 4.38969 15.2067 5.42272C16.1388 6.45575 16.6554 7.76295 16.6668 9.11677V15.5789C16.6678 16.0341 16.8609 16.4703 17.2039 16.792C17.5469 17.1138 18.0118 17.2947 18.4966 17.2951C18.551 17.2952 18.6032 17.3156 18.6417 17.3517C18.6802 17.3878 18.7019 17.4368 18.702 17.488V18.4677ZM20.175 7.76251C20.0239 6.61583 19.6292 5.50928 19.0144 4.50839C18.3996 3.50749 17.5772 2.6326 16.5958 1.93551C16.3506 1.76439 16.0441 1.68979 15.7413 1.7276C15.4385 1.7654 15.1633 1.91261 14.9743 2.13793C14.7853 2.36326 14.6974 2.64891 14.7293 2.93415C14.7611 3.21939 14.9102 3.48171 15.1449 3.66534C16.6294 4.72874 17.6144 6.29313 17.8912 8.0269C17.9374 8.30413 18.0966 8.55364 18.3351 8.72268C18.5736 8.89171 18.8728 8.96702 19.1694 8.93269C19.466 8.89835 19.7368 8.75706 19.9245 8.53868C20.1121 8.3203 20.202 8.04196 20.175 7.76251V7.76251ZM19.3436 8.12904C19.2911 8.18451 19.2229 8.22474 19.1469 8.24499C19.0708 8.26525 18.9903 8.26468 18.9146 8.24336C18.8389 8.22203 18.7713 8.18084 18.7197 8.12464C18.6682 8.06844 18.6348 7.99957 18.6235 7.92615C18.3195 6.01437 17.2342 4.289 15.5978 3.11606C15.1745 2.80025 15.7232 2.17801 16.1436 2.48548C17.0472 3.12635 17.8047 3.9309 18.3713 4.85151C18.9378 5.77213 19.3019 6.79011 19.442 7.8452C19.4482 7.89637 19.4426 7.94819 19.4257 7.99716C19.4087 8.04613 19.3807 8.09111 19.3436 8.12904V8.12904ZM3.11635 8.0269C3.39286 6.2932 4.37767 4.72879 5.86196 3.66534C6.09349 3.48092 6.23985 3.2194 6.27025 2.93575C6.30065 2.65211 6.21272 2.36845 6.02496 2.14442C5.8372 1.92039 5.56423 1.77345 5.26346 1.73449C4.96269 1.69553 4.65754 1.76759 4.41219 1.93551C3.43072 2.63258 2.60821 3.50746 1.99333 4.50836C1.37846 5.50925 0.983736 6.61581 0.83253 7.76251C0.814028 7.91105 0.829224 8.06159 0.877119 8.20422C0.925015 8.34686 1.00453 8.47836 1.11042 8.59007C1.25719 8.74303 1.44717 8.85374 1.6583 8.90934C1.86942 8.96494 2.09301 8.96314 2.30309 8.90416C2.51317 8.84518 2.70111 8.73144 2.84507 8.57615C2.98903 8.42085 3.0831 8.23039 3.11635 8.0269ZM1.56741 7.8452C1.707 6.79029 2.07058 5.77239 2.63663 4.85177C3.20269 3.93115 3.95971 3.12651 4.86288 2.48548C4.95261 2.42475 5.06368 2.39852 5.17333 2.4122C5.28298 2.42587 5.38291 2.4784 5.45265 2.55902C5.52238 2.63964 5.55663 2.74224 5.54839 2.84581C5.54015 2.94938 5.49003 3.04607 5.4083 3.11606C3.77228 4.28914 2.68736 6.0145 2.38369 7.92615C2.36665 8.02334 2.31067 8.11074 2.22723 8.17044C2.14379 8.23015 2.0392 8.25764 1.93487 8.24729C1.83054 8.23695 1.73437 8.18954 1.66606 8.11479C1.59774 8.04003 1.56245 7.94359 1.56741 7.8452V7.8452Z" fill="#CB7DD0"/>
</svg>
