<svg width="25" height="24" viewBox="0 0 25 24" fill="none" xmlns="http://www.w3.org/2000/svg">
    <path d="M12.6379 2.91C9.32787 2.91 6.63787 5.6 6.63787 8.91V11.8C6.63787 12.41 6.37787 13.34 6.06787 13.86L4.91787 15.77C4.20787 16.95 4.69787 18.26 5.99787 18.7C10.3079 20.14 14.9579 20.14 19.2679 18.7C20.4779 18.3 21.0079 16.87 20.3479 15.77L19.1979 13.86C18.8979 13.34 18.6379 12.41 18.6379 11.8V8.91C18.6379 5.61 15.9379 2.91 12.6379 2.91Z" stroke="#914097" stroke-width="1.5" stroke-miterlimit="10" stroke-linecap="round"/>
    <path d="M14.4879 3.2C14.1779 3.11 13.8579 3.04 13.5279 3C12.5679 2.88 11.6479 2.95 10.7879 3.2C11.0779 2.46 11.7979 1.94 12.6379 1.94C13.4779 1.94 14.1979 2.46 14.4879 3.2Z" stroke="#914097" stroke-width="1.5" stroke-miterlimit="10" stroke-linecap="round" stroke-linejoin="round"/>
    <path d="M15.6379 19.06C15.6379 20.71 14.2879 22.06 12.6379 22.06C11.8179 22.06 11.0579 21.72 10.5179 21.18C9.97788 20.64 9.63788 19.88 9.63788 19.06" stroke="#914097" stroke-width="1.5" stroke-miterlimit="10"/>
</svg>
