<svg xmlns="http://www.w3.org/2000/svg" viewBox="0 0 24 24"><path fill="#303c42" d="M5.14 8.74a.5.5 0 0 0 .31.11h.1a.5.5 0 0 0 .34-.25A7 7 0 0 1 12 5a6.87 6.87 0 0 1 4.19 1.41.5.5 0 0 0 .66 0L19.7 3.5a.5.5 0 0 0 0-.74A12.08 12.08 0 0 0 12 0 12 12 0 0 0 1.87 5.58a.5.5 0 0 0 .13.67zm.03 4.78a6.81 6.81 0 0 1 0-3.11.5.5 0 0 0-.17-.5L1.66 7.27a.5.5 0 0 0-.77.2 11.94 11.94 0 0 0 0 9 .5.5 0 0 0 .33.3h.13a.5.5 0 0 0 .31-.11L5 14a.5.5 0 0 0 .17-.48zm18.63-3.6a.5.5 0 0 0-.49-.42H12.5a.5.5 0 0 0-.5.5v4a.5.5 0 0 0 .5.5h6a7.06 7.06 0 0 1-1.81 2.64.5.5 0 0 0 0 .76l3.18 2.51a.5.5 0 0 0 .67 0 11.9 11.9 0 0 0 3.21-6.27A11.47 11.47 0 0 0 24 12a12.29 12.29 0 0 0-.2-2.08zm-8.15 8.39a.5.5 0 0 0-.53-.05A6.91 6.91 0 0 1 12 19a7 7 0 0 1-6.14-3.64.5.5 0 0 0-.75-.15L2 17.7a.5.5 0 0 0-.11.66A12 12 0 0 0 19 21.75a.5.5 0 0 0 0-.8z"/></svg>